<svg width="137" height="26" viewBox="0 0 137 26" fill="none" xmlns="http://www.w3.org/2000/svg">
<g clip-path="url(#clip0_1_234)">
<path d="M8.37271 11.0506L13.6898 6.04529L19.0091 11.0547L22.1012 8.14068L13.6898 0.217285L5.27844 8.13864L8.37271 11.0506Z" fill="#C7BDB3"/>
<path d="M-0.00134277 13.1089L3.09193 10.1958L6.18521 13.1089L3.09193 16.022L-0.00134277 13.1089Z" fill="#C7BDB3"/>
<path d="M8.37252 15.1663L13.6896 20.1737L19.0089 15.1643L22.1032 18.0742L22.101 18.0763L13.6896 25.9997L5.27825 18.0803L5.27393 18.0763L8.37252 15.1663Z" fill="#C7BDB3"/>
<path d="M21.1892 13.1099L24.2825 10.1968L27.3758 13.1099L24.2825 16.0229L21.1892 13.1099Z" fill="#C7BDB3"/>
<path d="M16.8277 13.1076L13.6901 10.1508L11.3699 12.3358L11.1018 12.5863L10.5525 13.1035L10.5482 13.1076L10.5525 13.1137L13.6901 16.0665L16.8277 13.1096L16.8299 13.1076H16.8277Z" fill="#C7BDB3"/>
<path d="M32.202 6.4649H38.9315C40.6008 6.4649 41.8637 6.87219 42.72 7.68677C43.0426 7.98766 43.297 8.34716 43.4676 8.74343C43.6382 9.1397 43.7215 9.56449 43.7126 9.99201V10.0307C43.7184 10.3809 43.6666 10.7299 43.559 11.0652C43.4632 11.3539 43.3241 11.6282 43.146 11.8798C42.9799 12.1171 42.779 12.331 42.5492 12.5152C42.3246 12.6972 42.0787 12.8543 41.8161 12.9835C42.5733 13.2319 43.2542 13.6515 43.799 14.2054C44.2805 14.7213 44.5213 15.434 44.5213 16.3437V16.3823C44.535 16.9504 44.4037 17.5133 44.1385 18.0237C43.8816 18.494 43.5049 18.897 43.0422 19.1967C42.5191 19.527 41.9366 19.765 41.3231 19.8993C40.5942 20.062 39.847 20.1407 39.098 20.1335H32.202V6.4649ZM38.2568 11.9918C38.839 12.0183 39.4184 11.9003 39.937 11.6497C40.1392 11.5384 40.3043 11.3761 40.4136 11.181C40.5229 10.9859 40.5721 10.7659 40.5554 10.5459V10.5072C40.5661 10.3045 40.5224 10.1025 40.4283 9.91993C40.3342 9.73734 40.1927 9.58003 40.017 9.46254C39.658 9.22224 39.1398 9.10209 38.4622 9.10209H35.3137V11.9918H38.2568ZM39.1066 17.5003C39.6867 17.531 40.264 17.406 40.7717 17.1399C40.9694 17.0202 41.1295 16.8528 41.2352 16.6551C41.341 16.4574 41.3885 16.2367 41.3728 16.0158V15.9771C41.3806 15.7672 41.3336 15.5586 41.236 15.3697C41.1384 15.1809 40.993 15.0174 40.8128 14.8937C40.4408 14.6222 39.8397 14.4864 39.0093 14.4864H35.3137V17.5003H39.1066Z" fill="#C7BDB3"/>
<path d="M48.5298 6.4649H51.7237V20.1375H48.5298V6.4649Z" fill="#C7BDB3"/>
<path d="M56.557 6.4649H59.5022L66.3095 14.8795V6.4649H69.4623V20.1375H66.7441L59.7141 11.446V20.1375H56.557V6.4649Z" fill="#C7BDB3"/>
<path d="M79.1313 6.36719H82.0721L88.293 20.1369H84.9587L83.6311 17.0702H77.4923L76.1646 20.1369H72.9082L79.1313 6.36719ZM82.4916 14.4148L80.5584 9.97965L78.634 14.4148H82.4916Z" fill="#C7BDB3"/>
<path d="M91.7471 6.4649H94.6923L101.495 14.8795V6.4649H104.648V20.1375H101.93L94.8999 11.446V20.1375H91.7471V6.4649Z" fill="#C7BDB3"/>
<path d="M116.142 20.3771C115.125 20.3853 114.116 20.1997 113.176 19.8314C112.291 19.4874 111.488 18.98 110.815 18.3393C110.142 17.6986 109.612 16.9375 109.255 16.1008C108.88 15.2256 108.69 14.2896 108.695 13.3456V13.307C108.679 11.4462 109.439 9.65375 110.812 8.31589C111.488 7.66237 112.297 7.14427 113.191 6.7927C114.163 6.41346 115.207 6.22432 116.259 6.23678C116.882 6.23241 117.503 6.28492 118.114 6.39358C118.638 6.48678 119.149 6.63077 119.641 6.82325C120.087 7.00013 120.512 7.22276 120.906 7.4871C121.291 7.74491 121.653 8.03234 121.987 8.34643L119.957 10.5538C119.438 10.1031 118.856 9.72142 118.227 9.41958C117.609 9.14134 116.931 9.00193 116.246 9.01231C115.676 9.00659 115.112 9.11511 114.59 9.33068C114.068 9.54625 113.601 9.86393 113.219 10.2626C112.841 10.6603 112.544 11.1209 112.345 11.6209C112.137 12.1492 112.032 12.7088 112.036 13.2723V13.311C112.034 13.8738 112.139 14.4324 112.345 14.9605C112.542 15.4622 112.835 15.9254 113.21 16.3268C113.589 16.7305 114.055 17.0528 114.577 17.2721C115.1 17.4913 115.666 17.6023 116.238 17.5975C116.966 17.6191 117.688 17.4716 118.342 17.1678C118.963 16.8487 119.538 16.4544 120.052 15.9949L122.084 17.9294C121.726 18.2963 121.337 18.6367 120.923 18.9476C120.516 19.2505 120.075 19.5094 119.606 19.7194C119.107 19.9406 118.582 20.104 118.041 20.2061C117.416 20.3241 116.78 20.3814 116.142 20.3771V20.3771Z" fill="#C7BDB3"/>
<path d="M125.854 6.4649H136.781V9.14078H128.996V11.9144H135.851V14.5903H129.007V17.4617H136.889V20.1375H125.86L125.854 6.4649Z" fill="#C7BDB3"/>
</g>
<defs>
<clipPath id="clip0_1_234">
<rect width="136.886" height="25.7827" fill="white" transform="translate(0 0.217285)"/>
</clipPath>
</defs>
</svg>
