<svg width="185" height="14" viewBox="0 0 185 14" fill="none" xmlns="http://www.w3.org/2000/svg">
<path fill-rule="evenodd" clip-rule="evenodd" d="M47.3255 10.5451C48.4196 10.5451 49.4225 10.104 50.1216 9.44224C50.2735 9.27681 50.6078 8.97352 50.5774 9.02866L52.9176 11.3171C51.5804 12.7784 49.5745 13.7158 47.2951 13.7158C43.253 13.7158 40.0011 10.7657 40.0011 7.09864C40.0011 3.43161 43.253 0.481445 47.2951 0.481445C49.4529 0.481445 51.398 1.33617 52.7352 2.68718L50.3951 4.97563L49.848 4.47934C49.1794 3.9279 48.2981 3.59704 47.3255 3.59704C45.2285 3.59704 43.4962 5.14106 43.4962 7.07107C43.4962 8.97352 45.1981 10.5451 47.3255 10.5451ZM137.346 13.4953C138.44 13.4953 139.2 12.806 139.2 11.8134C139.2 10.8484 138.44 10.1867 137.346 10.1591C136.282 10.1591 135.522 10.8484 135.522 11.8134C135.522 12.806 136.282 13.4953 137.346 13.4953ZM77.8084 9.49738C77.1094 10.1591 76.1065 10.6002 75.0124 10.6002C72.8849 10.6002 71.183 9.02866 71.183 7.12622C71.183 5.1962 72.9153 3.65219 75.0124 3.65219C75.9849 3.65219 76.8662 3.98305 77.5349 4.53448L78.0819 5.03077L80.4525 2.68718C79.1152 1.33617 77.1702 0.481445 75.0124 0.481445C70.9703 0.481445 67.7183 3.43161 67.7183 7.09864C67.7183 10.7657 70.9703 13.7158 75.0124 13.7158C77.2917 13.7158 79.2976 12.7784 80.6348 11.3171L78.2947 9.02866C78.2947 9.02866 77.9604 9.33195 77.8084 9.49738ZM147.588 10.5451C148.682 10.5451 149.685 10.104 150.384 9.44224C150.536 9.27681 150.87 8.97352 150.84 9.02866L153.18 11.3171C151.843 12.7784 149.837 13.7158 147.557 13.7158C143.515 13.7158 140.263 10.7657 140.263 7.09864C140.263 3.43161 143.515 0.481445 147.557 0.481445C149.715 0.481445 151.66 1.33617 152.997 2.68718L150.657 4.97563L150.11 4.47934C149.442 3.9279 148.56 3.59704 147.588 3.59704C145.491 3.59704 143.758 5.14106 143.758 7.07107C143.758 8.97352 145.46 10.5451 147.588 10.5451ZM10.0653 6.82293C11.3114 6.32664 12.2231 5.47192 12.2231 3.98305V3.95548C12.2231 3.07318 11.8888 2.41146 11.3114 1.91517C10.4908 1.14317 9.27511 0.757162 7.51239 0.757162H0.218384V13.4401H7.54278C10.8859 13.4401 12.8309 12.1167 12.8309 9.93853V9.91095C12.8309 8.17394 11.7672 7.31922 10.0653 6.82293ZM4.10852 3.56947H6.63103C7.78592 3.56947 8.39375 3.95548 8.39375 4.64477V4.67234C8.39375 5.41677 7.72513 5.7752 6.53986 5.7752H4.10852V3.56947ZM8.97119 9.46981C8.97119 10.2142 8.30258 10.6278 7.1173 10.6278H4.10852V8.28423H7.05652C8.36336 8.28423 8.9408 8.72537 8.9408 9.41466V9.46981H8.97119ZM14.0466 0.757162H17.9367V10.3797H24.2278V13.4401H14.0466V0.757162ZM91.3327 5.49949H86.3485V0.757162H82.4583V13.4677L86.3485 13.4401V8.61509H91.3327V13.4401H95.2228V0.757162H91.3327V5.49949ZM102.851 0.757162H106.559L112.485 13.4401H108.352L107.349 11.1793H102L100.997 13.4401H96.9552L102.851 0.757162ZM104.644 4.89291L103.094 8.47723H106.194L104.644 4.89291ZM118.108 0.757162H114.218V13.4677H118.108V0.757162ZM129.353 7.48465V0.784734H133.243V13.4677H129.809L123.821 6.49207V13.4677H119.931V0.757162L123.578 0.784734L129.353 7.48465ZM67.7791 0.757162H63.19L58.3577 5.91306V0.757162H54.4676V13.4677H58.3577V10.1867L59.7861 8.75294L63.7066 13.4677H68.3262L62.3086 6.21635L67.7791 0.757162ZM24.5317 7.09864C24.5317 3.43161 27.7837 0.481445 31.8258 0.481445C35.8375 0.481445 39.1198 3.43161 39.1198 7.09864C39.1198 10.7657 35.8678 13.7158 31.8258 13.7158C27.7837 13.7158 24.5317 10.7657 24.5317 7.09864ZM27.9964 7.09864C27.9964 9.00109 29.6983 10.5727 31.8258 10.5727C33.9532 10.5727 35.6551 9.02866 35.6551 7.09864C35.6551 5.1962 33.9532 3.62461 31.8258 3.62461C29.7287 3.62461 27.9964 5.16863 27.9964 7.09864ZM160.808 0.481445C156.766 0.481445 153.514 3.43161 153.514 7.09864C153.514 10.7657 156.766 13.7158 160.808 13.7158C164.85 13.7158 168.102 10.7657 168.102 7.09864C168.102 3.43161 164.85 0.481445 160.808 0.481445ZM160.808 10.5727C158.681 10.5727 156.979 9.00109 156.979 7.09864C156.979 5.16863 158.711 3.62461 160.808 3.62461C162.936 3.62461 164.637 5.1962 164.637 7.09864C164.668 9.02866 162.936 10.5727 160.808 10.5727ZM181.353 5.91306L178.557 12.1443H175.852L173.056 5.91306V13.4126H169.409V0.757162H173.846L177.22 7.76036L180.593 0.757162H185V13.4126H181.353V5.91306Z" fill="#C7BDB3"/>
</svg>
