<svg width="120" height="19" viewBox="0 0 120 19" fill="none" xmlns="http://www.w3.org/2000/svg">
<g clip-path="url(#clip0_1_249)">
<path d="M10.9431 0.520813H22.1045C22.0977 0.656586 22.0467 0.787348 21.9581 0.896112C21.5802 1.49207 21.2402 2.11236 20.8689 2.70832C20.3438 3.56404 19.8526 4.43539 19.3189 5.28763C18.9807 5.90097 18.5991 6.49519 18.2382 7.0981C16.0694 7.0981 13.9006 7.0981 11.7318 7.0981C11.6185 7.0981 11.5061 7.10332 11.3927 7.1094C11.2983 7.33875 11.1415 7.53943 11.0149 7.75488C10.8496 8.0016 10.7154 8.26483 10.552 8.51156C10.3792 8.84342 10.1402 9.14053 9.96637 9.47152C9.60742 10.0319 9.27209 10.6009 8.9207 11.1673C8.55419 11.7465 8.19587 12.3338 7.84574 12.9291C7.69757 13.1402 7.56106 13.3579 7.43673 13.5816C6.70278 14.7561 5.99244 15.9411 5.25754 17.1148C5.1952 17.2409 5.11309 17.358 5.01383 17.4623C3.75751 17.4544 2.50119 17.4623 1.24487 17.4623C1.09014 17.465 0.936322 17.4848 0.786743 17.5213C0.786743 17.2016 1.01911 16.9454 1.17592 16.6769C1.36484 16.3164 1.61705 15.9819 1.80691 15.6205C3.3126 13.1429 4.80224 10.6565 6.30321 8.17709C6.64327 7.63847 6.93515 7.08855 7.27709 6.56035C7.70405 5.86535 8.10173 5.15472 8.54664 4.46754C8.68833 4.17998 8.87914 3.91675 9.03499 3.63614C9.58853 2.73004 10.1317 1.81872 10.6833 0.912618C10.7488 0.771111 10.8363 0.639123 10.9431 0.520813V0.520813Z" fill="#C7BDB3"/>
<path d="M23.8766 4.16868C24.62 2.97415 25.3379 1.76659 26.0917 0.577271H30.1232C30.1819 0.580003 30.2402 0.588448 30.297 0.602464C30.1629 0.789245 30.0505 0.98732 29.9324 1.18192C28.9601 2.78679 27.9906 4.39252 27.024 5.99913C26.6178 6.6533 26.24 7.32223 25.8281 7.97292L25.7875 7.98596L25.7799 8.06762C23.8844 11.1951 21.9952 14.3249 20.1123 17.457C16.4114 17.4605 12.7101 17.4605 9.00854 17.457C9.21919 17.0522 9.46857 16.6656 9.70283 16.2721C10.757 14.4894 11.8386 12.7224 12.8776 10.9397C15.1516 10.9362 17.4256 10.9362 19.6995 10.9397C21.1042 8.68964 22.4786 6.42221 23.8728 4.16868H23.8766Z" fill="#C7BDB3"/>
<path d="M65.4822 0.531128V17.662H68.7097V5.61567L74.5971 13.5496L80.4373 5.42716V17.662H83.7593V0.531128H80.1861L74.6207 8.43896L68.9931 0.531128H65.4822Z" fill="#C7BDB3"/>
<path d="M50.3853 4.94952H52.4945V17.807H50.3853V4.94952Z" fill="#C7BDB3"/>
<path d="M50.2036 0.186218H52.6761V2.34373H50.2036V0.186218Z" fill="#C7BDB3"/>
<path d="M56.5248 1.26501H58.7285V4.9492H63.0734V6.74482H58.7285V14.3825C58.7247 14.6768 58.7989 14.9675 58.9448 15.2295C59.3179 15.881 60.3314 16.6542 63.0734 15.7507V17.4151C63.0734 17.4151 60.5703 18.7182 58.3034 17.5315C58.3034 17.5315 57.1775 17.092 56.7043 15.6082C56.5814 15.2108 56.5209 14.7992 56.5248 14.386V6.71615L54.6669 6.74482V4.9492H56.5399L56.5248 1.26501Z" fill="#C7BDB3"/>
<path d="M87.1603 0.531128V17.7776H101.171V14.9977H90.5767V10.4222H99.9118V7.6858H90.5607V3.32836H101.061V0.531128H87.1603Z" fill="#C7BDB3"/>
<path d="M102.486 0.531128H106.477L111.058 6.58601L115.603 0.531128H119.594L113.076 8.94195L120 17.7628H115.796L111.074 11.3205L106.122 17.7776H102.132L108.956 9.01839L102.486 0.531128Z" fill="#C7BDB3"/>
<path d="M43.9293 8.82978C43.9293 8.82978 47.0152 7.75866 46.8263 4.67475C46.8263 4.67475 46.8008 1.70899 43.1699 0.793373C42.5662 0.644607 41.9436 0.57098 41.3186 0.574459H32.6107L32.6343 17.7054H42.009C42.009 17.7054 47.495 17.5968 47.8813 13.1012C47.8813 13.1012 48.2743 9.9591 43.9293 8.82978V8.82978ZM34.8616 2.34315H40.4194C44.7794 2.32925 44.6538 5.15254 44.6538 5.15254C44.719 8.37371 40.7178 8.30855 40.7178 8.30855H34.8616V2.34315ZM41.6624 15.895H34.8616V9.93043H41.3639C45.724 9.91566 45.5984 12.739 45.5984 12.739C45.6635 15.9601 41.6624 15.895 41.6624 15.895Z" fill="#C7BDB3"/>
</g>
<defs>
<clipPath id="clip0_1_249">
<rect width="119.213" height="17.8445" fill="white" transform="translate(0.786743 0.18634)"/>
</clipPath>
</defs>
</svg>
