<svg width="90" height="19" viewBox="0 0 90 19" fill="none" xmlns="http://www.w3.org/2000/svg">
<path fill-rule="evenodd" clip-rule="evenodd" d="M6.93434 15.9032C7.6286 15.9032 8.27013 15.7851 8.87825 15.5627C8.88345 15.5739 10.1212 17.3733 10.139 17.3858C9.01858 17.9493 7.84764 18.1973 6.56754 18.1973C2.76215 18.1973 0 15.8511 0 12.1056C0 8.33302 2.90323 5.98679 6.56754 5.98679C7.87214 5.98679 8.90052 6.2515 9.93633 6.7698C9.82198 6.94766 8.75573 8.64149 8.75202 8.64844C8.13768 8.41972 7.48192 8.30412 6.82074 8.30801C4.56572 8.30801 2.81859 9.65307 2.81859 12.1056C2.81859 14.4261 4.50929 15.9032 6.93434 15.9032ZM16.5321 5.98679C20.281 5.98679 22.9868 8.46641 22.9868 12.1056C22.9868 15.7184 20.281 18.1973 16.5321 18.1973C12.8121 18.1973 10.1064 15.7191 10.1064 12.1056C10.1064 8.46641 12.8121 5.98679 16.5321 5.98679V5.98679ZM16.5321 8.2288C14.4471 8.2288 12.9242 9.73228 12.9242 12.1056C12.9242 14.4532 14.4464 15.956 16.5328 15.956C18.675 15.956 20.1689 14.4532 20.1689 12.1056C20.1689 9.73228 18.675 8.2288 16.5321 8.2288V8.2288ZM24.7629 17.934V6.25011H27.5525V17.934H24.7629ZM24.3961 2.66304C24.3961 1.76679 25.2143 1.05535 26.1439 1.05535C27.0743 1.05535 27.8911 1.76679 27.8911 2.66373C27.8911 3.58707 27.0743 4.32561 26.1439 4.32561C25.2143 4.32561 24.3961 3.58707 24.3961 2.66373V2.66304ZM29.9872 6.98934C31.7343 6.35641 33.878 5.98679 35.709 5.98679C38.8944 5.98679 40.9237 7.12065 40.9237 10.4173V17.934H38.1615V10.6549C38.1615 8.96734 37.0344 8.36011 35.4833 8.36011C34.4965 8.36011 33.5112 8.49212 32.7776 8.70333V17.934H29.9872V6.98934ZM43.2604 0H46.05V6.56762C46.6418 6.27721 47.7972 5.98679 48.8961 5.98679C52.5047 5.98679 55.2097 8.14891 55.2097 11.8944C55.2097 15.6656 52.5329 18.1973 47.9108 18.1973C46.3254 18.193 44.7525 17.9345 43.2604 17.4331V0ZM46.05 15.7191C46.5854 15.8768 47.29 15.9553 47.9947 15.9553C50.5593 15.9553 52.3918 14.6373 52.3918 11.9465C52.3918 9.67878 50.6729 8.33371 48.559 8.33371C47.4601 8.33371 46.6136 8.59772 46.0493 8.88814L46.05 15.7191ZM63.2704 10.1005C63.2704 8.83464 62.2554 8.2552 60.8743 8.2552C59.4368 8.2552 58.3097 8.65053 57.2672 9.20425V6.93584C58.3661 6.35641 59.7747 5.98679 61.3258 5.98679C64.059 5.98679 66.0036 7.04145 66.0036 9.9685V17.6964C64.82 17.9861 63.1301 18.1716 61.7208 18.1716C58.479 18.1716 56.1111 17.2482 56.1111 14.6109C56.1111 12.2376 58.2807 11.0773 61.8886 11.0773H63.2697L63.2704 10.1005ZM63.2704 12.817H62.0868C60.1415 12.817 58.8732 13.3451 58.8732 14.5317C58.8732 15.7448 60.0576 16.2193 61.7483 16.2193C62.1715 16.2193 62.7633 16.1665 63.2704 16.0873V12.817ZM68.0329 14.7693C69.189 15.5864 70.5693 16.0873 71.8376 16.0873C73.0783 16.0873 73.8958 15.692 73.8958 14.7693C73.8958 13.8189 73.1629 13.4764 71.5569 13.081C68.9633 12.5273 67.8636 11.5519 67.8636 9.52107C67.8636 7.14705 69.7808 5.98679 72.3172 5.98679C73.7265 5.98679 74.8536 6.27721 75.8961 6.88304V9.28346C74.7972 8.54562 73.7265 8.0968 72.4019 8.0968C71.1901 8.0968 70.5419 8.65053 70.5419 9.41546C70.5419 10.1797 71.0765 10.5757 72.5147 10.9439C75.3623 11.5248 76.6015 12.528 76.6015 14.6373C76.6015 17.0898 74.6004 18.1973 71.8947 18.1973C70.429 18.1973 68.9633 17.8291 68.0336 17.2482L68.0329 14.7693ZM80.421 12.6857V12.7385C80.5903 14.8214 82.506 15.9553 84.4506 15.9553C86.1703 15.9553 87.4111 15.5864 88.6503 14.8214V17.1169C87.5232 17.8548 85.8599 18.1973 84.2546 18.1973C80.3646 18.1973 77.7153 15.8768 77.7153 12.1848C77.7153 8.46641 80.3074 5.98749 83.7467 5.98749C87.3821 5.98749 89.1018 8.176 89.1018 11.3664V12.6864L80.421 12.6857ZM86.4799 10.9974C86.4243 9.17716 85.4664 8.176 83.6621 8.176C82.0553 8.176 80.8717 9.23135 80.5057 10.9981L86.4799 10.9974Z" fill="#C7BDB3"/>
</svg>
