<svg width="33" height="32" viewBox="0 0 33 32" fill="none" xmlns="http://www.w3.org/2000/svg">
<path d="M25.9294 26.428C25.6761 26.428 25.4228 26.3346 25.2228 26.1346C25.0368 25.9465 24.9325 25.6925 24.9325 25.428C24.9325 25.1634 25.0368 24.9095 25.2228 24.7213C30.0361 19.908 30.0361 12.0813 25.2228 7.28131C25.0368 7.09312 24.9325 6.83921 24.9325 6.57464C24.9325 6.31007 25.0368 6.05616 25.2228 5.86797C25.6094 5.48131 26.2494 5.48131 26.6361 5.86797C32.2228 11.4546 32.2228 20.548 26.6361 26.1346C26.4361 26.3346 26.1828 26.428 25.9294 26.428Z" fill="#236E57"/>
<path d="M7.0733 26.428C6.81997 26.428 6.56664 26.3347 6.36664 26.1347C0.779969 20.548 0.779969 11.4547 6.36664 5.868C6.7533 5.48134 7.3933 5.48134 7.77997 5.868C8.16664 6.25467 8.16664 6.89467 7.77997 7.28134C2.96664 12.0947 2.96664 19.9213 7.77997 24.7213C8.16664 25.108 8.16664 25.748 7.77997 26.1347C7.57997 26.3347 7.32663 26.428 7.0733 26.428Z" fill="#236E57"/>
<path d="M16.4988 30.2827C14.8321 30.2694 13.2454 30.0027 11.7654 29.4827C11.5146 29.3939 11.3093 29.2093 11.1943 28.9694C11.0793 28.7295 11.0642 28.4538 11.1521 28.2027C11.3388 27.6827 11.8988 27.4027 12.4321 27.5894C13.7121 28.0294 15.0721 28.2694 16.5121 28.2694C17.9388 28.2694 19.3121 28.0294 20.5788 27.5894C21.0988 27.416 21.6721 27.6827 21.8588 28.2027C22.0454 28.7227 21.7654 29.296 21.2454 29.4827C19.7521 30.0027 18.1654 30.2827 16.4988 30.2827Z" fill="#236E57"/>
<path d="M20.8983 4.45333C20.7916 4.45333 20.6716 4.44 20.5649 4.4C19.2585 3.94145 17.8828 3.71141 16.4983 3.72C15.0716 3.72 13.7116 3.96 12.4316 4.4C11.8983 4.57333 11.3383 4.30667 11.1516 3.78667C10.9649 3.26667 11.2449 2.69333 11.7649 2.50667C13.2583 1.98667 14.8449 1.72 16.4983 1.72C18.1516 1.72 19.7516 1.98667 21.2316 2.50667C21.3762 2.5083 21.5188 2.5413 21.6495 2.60338C21.7801 2.66546 21.8957 2.75515 21.9884 2.86626C22.081 2.97736 22.1484 3.10724 22.186 3.24693C22.2235 3.38662 22.2303 3.5328 22.2059 3.67538C22.1815 3.81796 22.1265 3.95354 22.0446 4.07278C21.9627 4.19201 21.8559 4.29206 21.7316 4.36602C21.6072 4.43998 21.4684 4.48608 21.3245 4.50116C21.1806 4.51623 21.0352 4.49992 20.8983 4.45333Z" fill="#236E57"/>
<path d="M12.1503 16V13.7734C12.1503 11 14.1103 9.86669 16.5103 11.2534L18.4436 12.3734L20.3769 13.4934C22.7769 14.88 22.7769 17.1467 20.3769 18.5334L18.4436 19.6534L16.5103 20.7734C14.1103 22.16 12.1503 21.0267 12.1503 18.2534V16Z" fill="#236E57"/>
</svg>
